<svg xmlns="http://www.w3.org/2000/svg" width="710" height="351" viewBox="0 0 710 351" version="1.1"><path d="M 73.172 83.110 C 59.550 84.693, 43.953 90.365, 30.663 98.572 C 18.626 106.004, 19.064 105.303, 23.565 109.940 L 27.440 113.932 31.709 111.430 C 37.479 108.049, 45.602 104, 46.616 104 C 47.071 104, 44.530 106.959, 40.971 110.575 L 34.500 117.151 40.500 113.628 C 53.482 106.005, 68.084 101.623, 84.809 100.331 L 93.500 99.660 88.500 97.343 L 83.500 95.026 89.119 95.013 C 96.604 94.996, 110.577 97.496, 117.524 100.095 C 120.612 101.250, 123.397 101.936, 123.714 101.620 C 124.030 101.303, 124.502 98.829, 124.762 96.122 C 125.337 90.142, 124.228 89.200, 113 86.132 C 99.207 82.362, 87.358 81.463, 73.172 83.110 M 87.011 107.816 C 81.916 108.815, 82.023 111.248, 87.416 117.013 C 93.067 123.055, 93.318 126.163, 88.856 134.815 C 85.849 140.646, 85.785 141.011, 87.389 143.206 C 88.312 144.468, 90.117 146.941, 91.402 148.703 L 93.738 151.907 90.899 157.535 C 85.431 168.376, 85.752 174.117, 91.967 176.603 C 96.553 178.438, 96.952 179.623, 95.468 187 C 94.502 191.801, 94.601 192.967, 96.241 196.171 C 97.885 199.383, 97.967 200.384, 96.904 204.171 L 95.688 208.500 94.835 204.634 C 94.367 202.508, 92.822 199.389, 91.403 197.702 C 89.353 195.266, 88.960 194.006, 89.489 191.568 C 91.678 181.483, 91.654 181.383, 86.529 179.116 C 83.903 177.954, 81.602 176.195, 81.326 175.137 C 80.960 173.739, 79.650 173.108, 76.339 172.735 C 73.286 172.391, 70.941 171.359, 69.015 169.515 C 65.561 166.205, 61.662 166.656, 57.667 170.826 L 55.053 173.554 66.612 191.527 C 86.953 223.154, 94.057 233, 96.540 233 C 98.644 233, 101.836 221.797, 106.934 196.524 L 109.955 181.549 106.898 178.395 C 100.774 172.076, 102.391 161.823, 110.072 158.286 C 113.227 156.833, 114.060 155.848, 114.542 153 C 114.868 151.075, 115.365 148.262, 115.647 146.750 C 116.122 144.199, 115.918 144, 112.829 143.996 C 108.854 143.992, 103.761 141.091, 101.399 137.486 C 98.926 133.712, 99.022 126.792, 101.596 123.324 C 104.396 119.550, 110.115 117.662, 114.814 118.959 C 116.780 119.502, 118.523 119.810, 118.689 119.644 C 118.856 119.478, 119.270 117.307, 119.611 114.819 L 120.231 110.296 115.366 109.048 C 109.683 107.592, 92.061 106.826, 87.011 107.816 M 67.080 110.113 C 62.999 111.209, 56.024 113.852, 51.580 115.986 C 43.231 119.996, 31.273 128.124, 30.409 130.377 C 30.138 131.083, 32.348 135.674, 35.320 140.580 C 38.291 145.486, 43.304 153.887, 46.459 159.250 C 49.613 164.613, 52.531 169, 52.942 169 C 53.354 169, 54.502 168.103, 55.495 167.006 C 59.523 162.554, 69.674 162.327, 72.490 166.626 C 73.637 168.376, 74.966 169, 77.544 169 C 81.355 169, 80.903 169.629, 85.427 158.022 L 87.951 151.545 85.096 148.522 C 79.864 142.986, 79.749 142.043, 83.434 134.920 C 88.801 124.547, 88.805 124.731, 83.065 118.662 C 79.596 114.995, 78 112.470, 78 110.653 C 78 107.442, 77.181 107.402, 67.080 110.113 M 14.157 111.243 C 12.060 113.340, 12.924 117.745, 16.301 122.172 C 20.134 127.197, 21.543 127.493, 24.266 123.846 L 26.248 121.191 23.478 117.560 C 19.568 112.433, 15.633 109.767, 14.157 111.243 M 55.123 124.004 C 43.282 126.793, 39.489 139.725, 48.012 148.247 C 51.418 151.654, 52.260 152, 57.132 151.996 C 67.243 151.989, 73.421 145.679, 72.710 136.085 C 72.361 131.380, 71.832 130.234, 68.669 127.335 C 66.667 125.501, 64.160 124, 63.096 124 C 62.033 124, 60.564 123.822, 59.832 123.604 C 59.099 123.387, 56.980 123.566, 55.123 124.004 M 106.070 125.638 C 103.191 129.298, 103.815 134.529, 107.514 137.743 C 110.834 140.628, 114.949 141.701, 116.023 139.962 C 117.032 138.330, 118.416 125.083, 117.657 124.324 C 117.350 124.017, 115.124 123.543, 112.710 123.271 C 108.786 122.828, 108.083 123.079, 106.070 125.638 M 52.277 129.973 C 48.697 132.156, 47.444 135.470, 48.398 140.239 C 49.417 145.337, 52.627 148, 57.751 148 C 63.989 148, 68 143.978, 68 137.723 C 68 129.090, 60.106 125.199, 52.277 129.973 M 110.114 164.582 C 108.002 167.267, 107.462 170.434, 108.607 173.418 C 108.941 174.288, 109.568 175, 110 175 C 110.804 175, 113.264 162.931, 112.596 162.263 C 112.394 162.060, 111.277 163.104, 110.114 164.582 M 75.994 190.507 C 74.887 191.841, 74.931 192.359, 76.258 193.687 C 78.403 195.831, 81.230 194.640, 80.820 191.765 C 80.429 189.026, 77.793 188.339, 75.994 190.507" stroke="none" fill="#dc6624" fill-rule="evenodd"/><path d="M 74.084 77.016 C 48.361 80.621, 25.387 91.241, 11.750 105.832 C 7.575 110.299, 7 111.447, 7 115.307 C 7 120.424, 10.405 125.820, 16.955 131.084 C 19.562 133.179, 23.797 138.921, 28.644 146.935 C 42.475 169.796, 57.242 193.296, 67.330 208.500 C 84.464 234.321, 89.532 240, 95.442 240 C 100.855 240, 103.650 236.887, 106.492 227.694 C 111.573 211.253, 120.264 163.500, 124.999 126 C 126.145 116.925, 127.714 108.076, 128.485 106.335 C 129.256 104.595, 130.443 100.476, 131.123 97.184 C 132.225 91.848, 132.168 90.905, 130.597 88.507 C 128.291 84.989, 118.491 80.523, 108.744 78.550 C 98.980 76.574, 82.459 75.842, 74.084 77.016 M 73.172 83.110 C 59.550 84.693, 43.953 90.365, 30.663 98.572 C 18.626 106.004, 19.064 105.303, 23.565 109.940 L 27.440 113.932 31.709 111.430 C 37.479 108.049, 45.602 104, 46.616 104 C 47.071 104, 44.530 106.959, 40.971 110.575 L 34.500 117.151 40.500 113.628 C 53.482 106.005, 68.084 101.623, 84.809 100.331 L 93.500 99.660 88.500 97.343 L 83.500 95.026 89.119 95.013 C 96.604 94.996, 110.577 97.496, 117.524 100.095 C 120.612 101.250, 123.397 101.936, 123.714 101.620 C 124.030 101.303, 124.502 98.829, 124.762 96.122 C 125.337 90.142, 124.228 89.200, 113 86.132 C 99.207 82.362, 87.358 81.463, 73.172 83.110 M 87.011 107.816 C 81.916 108.815, 82.023 111.248, 87.416 117.013 C 93.067 123.055, 93.318 126.163, 88.856 134.815 C 85.849 140.646, 85.785 141.011, 87.389 143.206 C 88.312 144.468, 90.117 146.941, 91.402 148.703 L 93.738 151.907 90.899 157.535 C 85.431 168.376, 85.752 174.117, 91.967 176.603 C 96.553 178.438, 96.952 179.623, 95.468 187 C 94.502 191.801, 94.601 192.967, 96.241 196.171 C 97.885 199.383, 97.967 200.384, 96.904 204.171 L 95.688 208.500 94.835 204.634 C 94.367 202.508, 92.822 199.389, 91.403 197.702 C 89.353 195.266, 88.960 194.006, 89.489 191.568 C 91.678 181.483, 91.654 181.383, 86.529 179.116 C 83.903 177.954, 81.602 176.195, 81.326 175.137 C 80.960 173.739, 79.650 173.108, 76.339 172.735 C 73.286 172.391, 70.941 171.359, 69.015 169.515 C 65.561 166.205, 61.662 166.656, 57.667 170.826 L 55.053 173.554 66.612 191.527 C 86.953 223.154, 94.057 233, 96.540 233 C 98.644 233, 101.836 221.797, 106.934 196.524 L 109.955 181.549 106.898 178.395 C 100.774 172.076, 102.391 161.823, 110.072 158.286 C 113.227 156.833, 114.060 155.848, 114.542 153 C 114.868 151.075, 115.365 148.262, 115.647 146.750 C 116.122 144.199, 115.918 144, 112.829 143.996 C 108.854 143.992, 103.761 141.091, 101.399 137.486 C 98.926 133.712, 99.022 126.792, 101.596 123.324 C 104.396 119.550, 110.115 117.662, 114.814 118.959 C 116.780 119.502, 118.523 119.810, 118.689 119.644 C 118.856 119.478, 119.270 117.307, 119.611 114.819 L 120.231 110.296 115.366 109.048 C 109.683 107.592, 92.061 106.826, 87.011 107.816 M 67.080 110.113 C 62.999 111.209, 56.024 113.852, 51.580 115.986 C 43.231 119.996, 31.273 128.124, 30.409 130.377 C 30.138 131.083, 32.348 135.674, 35.320 140.580 C 38.291 145.486, 43.304 153.887, 46.459 159.250 C 49.613 164.613, 52.531 169, 52.942 169 C 53.354 169, 54.502 168.103, 55.495 167.006 C 59.523 162.554, 69.674 162.327, 72.490 166.626 C 73.637 168.376, 74.966 169, 77.544 169 C 81.355 169, 80.903 169.629, 85.427 158.022 L 87.951 151.545 85.096 148.522 C 79.864 142.986, 79.749 142.043, 83.434 134.920 C 88.801 124.547, 88.805 124.731, 83.065 118.662 C 79.596 114.995, 78 112.470, 78 110.653 C 78 107.442, 77.181 107.402, 67.080 110.113 M 14.157 111.243 C 12.060 113.340, 12.924 117.745, 16.301 122.172 C 20.134 127.197, 21.543 127.493, 24.266 123.846 L 26.248 121.191 23.478 117.560 C 19.568 112.433, 15.633 109.767, 14.157 111.243 M 55.123 124.004 C 43.282 126.793, 39.489 139.725, 48.012 148.247 C 51.418 151.654, 52.260 152, 57.132 151.996 C 67.243 151.989, 73.421 145.679, 72.710 136.085 C 72.361 131.380, 71.832 130.234, 68.669 127.335 C 66.667 125.501, 64.160 124, 63.096 124 C 62.033 124, 60.564 123.822, 59.832 123.604 C 59.099 123.387, 56.980 123.566, 55.123 124.004 M 106.070 125.638 C 103.191 129.298, 103.815 134.529, 107.514 137.743 C 110.834 140.628, 114.949 141.701, 116.023 139.962 C 117.032 138.330, 118.416 125.083, 117.657 124.324 C 117.350 124.017, 115.124 123.543, 112.710 123.271 C 108.786 122.828, 108.083 123.079, 106.070 125.638 M 52.277 129.973 C 48.697 132.156, 47.444 135.470, 48.398 140.239 C 49.417 145.337, 52.627 148, 57.751 148 C 63.989 148, 68 143.978, 68 137.723 C 68 129.090, 60.106 125.199, 52.277 129.973 M 153.500 130.328 C 144.370 133.908, 139.319 139.430, 137.157 148.193 C 135.479 154.998, 135.648 195.872, 137.385 203.254 C 139.159 210.793, 142.995 216.427, 148.251 219.213 C 153.892 222.203, 166.696 222.425, 172 219.624 C 180.983 214.881, 185 207.515, 185 195.787 C 185 188.897, 184.898 188.826, 174.730 188.635 L 167.500 188.500 167.239 193.500 C 166.886 200.239, 166.287 202.570, 164.427 204.430 C 162.288 206.569, 159.402 206.402, 157 204 C 155.103 202.103, 155 200.667, 155 176.071 C 155 147.586, 155.121 147, 161.015 147 C 165.126 147, 167 150.201, 167 157.223 L 167 163 174.878 163 C 184.778 163, 185.468 162.338, 184.477 153.798 C 183.034 141.365, 179.387 135.020, 171.599 131.394 C 165.985 128.780, 158.564 128.343, 153.500 130.328 M 311.608 131.475 C 298.635 136.098, 292.219 153.720, 298.810 166.622 C 301.346 171.586, 308.586 178.710, 316.660 184.185 C 320.355 186.690, 323.628 189.805, 324.501 191.644 C 326.636 196.144, 326.416 201.584, 324 204 C 319.744 208.256, 314.467 205.377, 313.432 198.235 C 313.054 195.631, 312.600 193.242, 312.423 192.927 C 312.246 192.612, 308.366 192.837, 303.801 193.427 L 295.500 194.500 295.184 197.792 C 294.766 202.130, 297.545 210.305, 300.716 214.075 C 305.187 219.387, 310.468 221.465, 319.500 221.465 C 325.791 221.465, 328.375 221.001, 331.595 219.292 C 337.280 216.273, 341.636 210.964, 343.457 204.833 C 347.899 189.874, 342.208 177.488, 326.546 168.028 C 321.885 165.212, 317.155 161.622, 316.036 160.050 C 313.428 156.388, 313.442 151.979, 316.073 148.635 C 320.204 143.382, 326 146.610, 326 154.163 C 326 156.209, 326.344 158.094, 326.763 158.354 C 327.183 158.613, 330.893 158.062, 335.007 157.128 C 343.574 155.183, 343.913 154.657, 342.027 146.231 C 340.603 139.867, 336.294 134.493, 330.509 131.865 C 325.723 129.691, 317.112 129.513, 311.608 131.475 M 190.667 131.667 C 190.300 132.033, 190 151.743, 190 175.467 C 190 207.681, 190.304 218.904, 191.200 219.800 C 192.781 221.381, 205.219 221.381, 206.800 219.800 C 207.633 218.967, 208 213.739, 208 202.727 C 208 188.541, 208.175 186.888, 209.642 187.177 C 210.823 187.409, 212.628 191.968, 216.062 203.391 C 218.689 212.131, 221.437 219.662, 222.169 220.126 C 222.901 220.590, 227.002 220.976, 231.281 220.985 C 237.241 220.996, 239.196 220.653, 239.631 219.519 C 240.239 217.936, 237.588 209.715, 231.185 193.326 L 227.210 183.151 229.667 180.843 C 235.589 175.280, 236.500 172.433, 236.500 159.500 C 236.500 149.039, 236.217 146.971, 234.294 143.376 C 229.251 133.949, 221.911 131, 203.485 131 C 196.802 131, 191.033 131.300, 190.667 131.667 M 243.704 131.630 C 243.317 132.017, 243 148.421, 243 168.084 C 243 201.997, 243.106 204.083, 245.067 208.667 C 247.858 215.191, 250.345 217.611, 256.702 219.990 C 266.779 223.760, 277.767 221.900, 284.359 215.308 C 290.954 208.713, 291.084 207.742, 290.776 167.500 L 290.500 131.500 282.587 131.205 C 276.932 130.994, 274.439 131.280, 273.852 132.205 C 273.400 132.917, 273.024 148.912, 273.015 167.750 C 273.001 200.656, 272.922 202.078, 271 204 C 269.900 205.100, 267.930 206, 266.622 206 C 261.646 206, 261.536 205.239, 261 167.098 L 260.500 131.500 252.454 131.213 C 248.028 131.055, 244.091 131.242, 243.704 131.630 M 344.428 132.326 C 344.141 133.075, 344.040 137.020, 344.203 141.094 L 344.500 148.500 352.737 148.790 L 360.975 149.080 361.237 184.790 L 361.500 220.500 370 220.500 L 378.500 220.500 378.763 184.792 L 379.025 149.084 386.763 148.792 L 394.500 148.500 394.500 140 L 394.500 131.500 369.725 131.232 C 349.565 131.015, 344.853 131.218, 344.428 132.326 M 469.114 132.706 C 459.463 133.964, 450.900 144.320, 450.702 154.974 C 450.506 165.508, 455.358 173.591, 466.477 181.251 C 475.606 187.540, 477.724 189.635, 479.066 193.700 C 481.005 199.575, 478.291 205, 473.414 205 C 470.495 205, 467.009 199.953, 467.004 195.719 C 466.999 192.058, 465.827 191.761, 457.500 193.307 L 450.500 194.607 450.193 198.250 C 449.796 202.958, 454.333 212.389, 458.538 215.597 C 462.669 218.748, 469.313 221.005, 474.376 220.978 C 478.994 220.953, 486.276 218, 489.882 214.688 C 496.973 208.175, 499.236 193.271, 494.617 183.500 C 491.845 177.637, 489.213 175.080, 478.817 168.151 C 469.881 162.194, 468 159.896, 468 154.932 C 468 150.683, 470.436 148, 474.294 148 C 477.435 148, 479 150.453, 479 155.375 C 479 157.304, 479.363 159.106, 479.806 159.380 C 480.249 159.654, 483.736 159.092, 487.556 158.131 C 494.340 156.425, 494.508 156.305, 494.833 152.942 C 495.509 145.945, 491.126 137.651, 485.131 134.581 C 482.073 133.016, 473.991 132.070, 469.114 132.706 M 519 132.638 C 513.168 133.623, 511.858 134.186, 508.459 137.170 C 502.664 142.259, 500.546 147.297, 500.546 156 C 500.546 167.546, 504.157 172.831, 519.251 183.383 C 526.765 188.636, 529 191.970, 529 197.927 C 529 201.116, 528.481 202.294, 526.507 203.587 C 521.589 206.810, 518.017 203.936, 516.430 195.480 C 515.750 191.854, 515.665 191.794, 512.118 192.455 C 510.128 192.826, 506.587 193.384, 504.250 193.695 L 500 194.260 500 198.814 C 500 213.411, 516.057 224.628, 530.101 219.841 C 541.241 216.044, 546.268 208.484, 546.287 195.500 C 546.305 182.916, 542.803 177.711, 527.445 167.492 C 520.383 162.793, 518.871 161.302, 517.908 158.087 C 516.230 152.486, 518.258 148.606, 523.074 148.201 C 526.080 147.948, 526.818 148.305, 527.817 150.498 C 528.468 151.926, 529 154.396, 529 155.988 C 529 157.580, 529.363 159.106, 529.806 159.380 C 530.249 159.654, 533.736 159.091, 537.556 158.130 C 545.596 156.106, 546.079 155.196, 543.602 146.747 C 541.966 141.169, 538.664 136.903, 534.218 134.626 C 531.194 133.078, 522.851 131.987, 519 132.638 M 665 132.654 C 650.780 135.150, 642.715 149.595, 647.500 163.999 C 649.685 170.579, 654.038 175.447, 664.465 182.975 C 668.947 186.210, 673.151 190.036, 673.807 191.476 C 675.644 195.508, 675.279 200.721, 673 203 C 668.852 207.148, 663.728 204.269, 662.519 197.111 C 662.138 194.856, 661.503 192.811, 661.109 192.568 C 660.715 192.324, 657.042 192.698, 652.946 193.400 L 645.500 194.675 645.818 199.511 C 646.789 214.260, 660.880 223.937, 675.481 219.884 C 681.754 218.142, 687.484 213.630, 689.871 208.552 C 691.522 205.038, 692 202.109, 692 195.500 C 692 182.363, 688.428 176.618, 675.500 168.968 C 665.578 163.096, 662.131 158.600, 663.467 153.275 C 664.490 149.199, 665.867 148, 669.525 148 C 672.304 148, 672.972 148.480, 673.902 151.149 C 674.506 152.881, 675 155.581, 675 157.149 C 675 160.493, 674.584 160.443, 683.500 158.169 C 689.756 156.574, 690.533 156.106, 690.809 153.768 C 691.591 147.149, 686.362 137.770, 680.102 134.566 C 677.157 133.059, 668.756 131.995, 665 132.654 M 429.111 134.366 C 428.297 135.347, 428.051 147.397, 428.239 177.116 L 428.500 218.500 437 218.500 L 445.500 218.500 445.761 177.116 C 445.949 147.397, 445.703 135.347, 444.889 134.366 C 444.135 133.458, 441.490 133, 437 133 C 432.510 133, 429.865 133.458, 429.111 134.366 M 552.250 133.662 C 550.593 134.331, 550.462 199.492, 552.105 205.500 C 554.397 213.875, 565.088 221, 575.365 221 C 582.897 221, 591.409 216.134, 595.076 209.732 C 597.496 205.507, 597.500 205.445, 597.799 170.661 C 598.022 144.581, 597.794 135.457, 596.892 134.370 C 596 133.295, 593.851 132.994, 588.594 133.209 L 581.500 133.500 580.953 167.500 C 580.653 186.200, 580.315 201.580, 580.203 201.679 C 580.092 201.777, 579.293 202.564, 578.429 203.429 C 577.564 204.293, 575.796 205, 574.500 205 C 569.049 205, 569 204.679, 569 168.629 C 569 144.117, 568.685 135.085, 567.800 134.200 C 566.625 133.025, 554.840 132.617, 552.250 133.662 M 605.222 134.178 C 604.298 135.102, 604 145.601, 604 177.200 L 604 219 623.540 219 L 643.081 219 642.790 210.750 L 642.500 202.500 631.750 202.216 L 621 201.932 621 192.466 L 621 183 630.042 183 L 639.084 183 638.792 175.250 L 638.500 167.500 629.750 167.211 L 621 166.922 621 158.461 L 621 150 631.540 150 L 642.081 150 641.790 141.750 L 641.500 133.500 623.972 133.228 C 611.183 133.029, 606.114 133.286, 605.222 134.178 M 208 159.369 L 208 172 210.750 171.978 C 212.262 171.966, 214.620 171.095, 215.990 170.043 C 218.199 168.345, 218.519 167.248, 218.835 160.294 C 219.257 151.014, 217.774 148.303, 211.750 147.339 L 208 146.738 208 159.369 M 110.114 164.582 C 108.002 167.267, 107.462 170.434, 108.607 173.418 C 108.941 174.288, 109.568 175, 110 175 C 110.804 175, 113.264 162.931, 112.596 162.263 C 112.394 162.060, 111.277 163.104, 110.114 164.582 M 75.994 190.507 C 74.887 191.841, 74.931 192.359, 76.258 193.687 C 78.403 195.831, 81.230 194.640, 80.820 191.765 C 80.429 189.026, 77.793 188.339, 75.994 190.507" stroke="none" fill="#762512" fill-rule="evenodd"/></svg>